<svg xmlns="http://www.w3.org/2000/svg" viewBox="0 0 640 880" width="640" height="880"><path d="M40,60 L60,40 L580,40 L600,60 L600,640 L320,800 L40,640 Z" fill="#0B0E14" stroke="#F2F0E9" stroke-width="14"/><path d="M58,76 L72,58 L568,58 L582,76 L582,628 L320,778 L58,628 Z" fill="none" stroke="#D8FF3E" stroke-width="4"/><path fill="#F2F0E9" opacity="0.9" d="M284,84 L320,98 L356,84 L356,95 L320,109 L284,95 Z"/><path fill="#F2F0E9" opacity="0.55" d="M284,106 L320,120 L356,106 L356,117 L320,131 L284,117 Z"/><g transform="translate(202 122) scale(1.18)"><path fill="#F2F0E9" d="M100,0 L114,34 L112,64 L140,118 L186,164 L186,190 L148,172 L148,204 L124,188 L100,204 L76,188 L52,204 L52,172 L14,190 L14,164 L60,118 L88,64 L86,34 Z"/><path fill="#D8FF3E" d="M100,46 L108,68 L100,132 L92,68 Z"/><path fill="#D8FF3E" d="M84,214 L100,252 L116,214 L100,224 Z"/><path fill="#0B0E14" d="M70,140 L78,136 L74,168 L66,160 Z"/><path fill="#0B0E14" d="M130,140 L122,136 L126,168 L134,160 Z"/></g><g fill="#F2F0E9" transform="translate(110.0 448)"><rect x="0.0" y="0" width="16" height="80"/><rect x="42.0" y="0" width="16" height="80"/><rect x="16.0" y="32" width="26" height="16"/><rect x="90.5" y="0" width="16" height="80"/><rect x="106.5" y="0" width="42" height="16"/><rect x="106.5" y="32" width="34" height="16"/><rect x="106.5" y="64" width="42" height="16"/><rect x="181.0" y="16" width="16" height="64"/><rect x="223.0" y="16" width="16" height="64"/><rect x="197.0" y="44" width="26" height="14"/><polygon points="193.0,0 227.0,0 239.0,12 239.0,16 181.0,16 181.0,12"/><polygon points="271.5,0 287.5,0 300.5,55 313.5,0 329.5,0 309.5,80 291.5,80"/><polygon points="362.0,0 378.0,0 391.0,34 404.0,0 420.0,0 399.0,48 399.0,80 383.0,80 383.0,48"/></g><g fill="#D8FF3E" transform="translate(110.0 552)"><rect x="0.0" y="0" width="16" height="80"/><rect x="0.0" y="0" width="58" height="16"/><rect x="42.0" y="0" width="16" height="48"/><rect x="0.0" y="32" width="58" height="16"/><rect x="72.4" y="0" width="16" height="80"/><rect x="114.4" y="0" width="16" height="80"/><rect x="88.4" y="32" width="26" height="16"/><path fill-rule="evenodd" transform="translate(144.8 0)" d="M12 0 H46 L58 12 V68 L46 80 H12 L0 68 V12 Z M16 16 V64 H42 V16 Z"/><rect x="217.20000000000002" y="0" width="58" height="16"/><rect x="238.20000000000002" y="16" width="16" height="64"/><path fill-rule="evenodd" transform="translate(289.6 0)" d="M12 0 H46 L58 12 V68 L46 80 H12 L0 68 V12 Z M16 16 V64 H42 V16 Z"/><rect x="362.0" y="0" width="16" height="80"/><rect x="404.0" y="0" width="16" height="80"/><polygon points="362.0,0 378.0,0 420.0,58 420.0,80 404.0,80 362.0,22"/></g><g fill="#F2F0E9" opacity="0.85" transform="translate(223.82 668) scale(0.42)"><path fill-rule="evenodd" transform="translate(0.0 0)" d="M12 0 H58 V16 H16 V64 H42 V48 H30 V32 H58 V68 L46 80 H12 L0 68 V12 Z"/><rect x="98.0" y="16" width="16" height="64"/><rect x="140.0" y="16" width="16" height="64"/><rect x="114.0" y="44" width="26" height="14"/><polygon points="110.0,0 144.0,0 156.0,12 156.0,16 98.0,16 98.0,12"/><rect x="196.0" y="0" width="16" height="80"/><rect x="246.0" y="0" width="16" height="80"/><polygon points="196.0,0 212.0,0 229.0,34 246.0,0 262.0,0 262.0,20 237.0,62 221.0,62 196.0,20"/><rect x="302.0" y="0" width="16" height="80"/><rect x="318.0" y="0" width="42" height="16"/><rect x="318.0" y="32" width="34" height="16"/><rect x="318.0" y="64" width="42" height="16"/><path fill-rule="evenodd" transform="translate(400.0 0)" d="M12 0 H58 V16 H16 V32 H46 L58 44 V68 L46 80 H0 V64 H42 V48 H12 L0 36 V12 Z"/></g></svg>